<?xml version="1.0" encoding="UTF-8"?>
<svg version="1.1" xmlns="http://www.w3.org/2000/svg" width="2481" height="1748">
<path d="M0 0 C56.76 0 113.52 0 172 0 C172.02187378 29.18276367 172.02187378 29.18276367 172.04418945 58.95507812 C172.05436548 71.94673692 172.06459184 84.93839554 172.07551575 97.93005371 C172.07620828 98.75541895 172.07690081 99.58078419 172.07761432 100.4311605 C172.10098467 128.22059069 172.12844857 156.01001527 172.15898132 183.79943848 C172.15997689 184.70651028 172.16097246 185.61358208 172.16199819 186.54814091 C172.1836578 206.26226774 172.20598058 225.97639376 172.22898628 245.69051906 C172.24026459 255.35862064 172.25139638 265.02672238 172.26245117 274.69482422 C172.26355374 275.65690561 172.2646563 276.618987 172.26579228 277.61022238 C172.3014472 308.78204899 172.32743162 339.95387452 172.34838969 371.12571419 C172.36998182 403.16453981 172.40135299 435.20334138 172.44499113 467.24214491 C172.45115318 471.76961971 172.45720369 476.29709466 172.46318626 480.8245697 C172.46495759 482.16114964 172.46495759 482.16114964 172.46676469 483.52473119 C172.48547061 497.85587913 172.4938982 512.18701549 172.49846124 526.51817414 C172.50327113 540.93330311 172.51895911 555.34838799 172.54566566 569.7634933 C172.56119524 578.32291282 172.56846944 586.88224531 172.56376929 595.44167813 C172.56144884 601.16758833 172.5700503 606.8934166 172.58732411 612.619301 C172.59684422 615.87660393 172.60014451 619.13369182 172.59339563 622.39100701 C172.26318852 652.58895328 172.26318852 652.58895328 186.31640625 678.54296875 C194.92009752 685.9888547 205.68824276 688.59479153 216.83203125 688.28125 C227.49697019 687.33442435 236.86777711 682.62212364 244.25 674.875 C251.76951651 665.74849004 254.86789249 655.84702988 257.23828125 644.4921875 C258 641 258 641 259 639 C260.32 639 261.64 639 263 639 C260.3880283 667.96559664 248.97429479 694.22480002 226.27734375 713.28125 C203.24823497 730.66170946 174.62468164 735.1300475 146.40234375 731.4921875 C124.57493879 727.56460895 106.80997897 716.58945592 93.22265625 699.25390625 C80.2298423 680.23279198 74.67009947 659.25976273 70 637 C69.30777344 638.38058594 69.30777344 638.38058594 68.6015625 639.7890625 C52.29429094 671.68960468 26.00379918 698.78474175 -6 715 C-6.63147949 715.32194336 -7.26295898 715.64388672 -7.91357422 715.97558594 C-30.59892876 727.39717387 -54.28976859 732.23034547 -79.5625 732.25 C-80.72992233 732.25101212 -80.72992233 732.25101212 -81.92092896 732.25204468 C-136.22838404 732.1774762 -185.22793147 711.61081528 -223.8125 673.4375 C-272.8430555 623.94680373 -295.90441584 548.67099686 -296.203125 480.21875 C-296.21018463 479.13490021 -296.21724426 478.05105042 -296.22451782 476.93435669 C-296.45287385 431.58074132 -296.45287385 431.58074132 -293 411 C-292.80132324 409.7840918 -292.60264648 408.56818359 -292.39794922 407.31542969 C-280.37258346 335.63163889 -247.34284874 265.52040038 -187.25 222 C-152.38469451 197.29364948 -110.07304374 182.77874438 -67 185 C-65.87368164 185.05365723 -65.87368164 185.05365723 -64.72460938 185.10839844 C-25.69959903 187.17905158 9.59838897 201.07984409 38 228 C38.49612793 228.45826172 38.99225586 228.91652344 39.50341797 229.38867188 C50.79524577 239.85681141 59.37141166 251.6499704 67 265 C67.33 178.87 67.66 92.74 68 4 C45.56 4 23.12 4 0 4 C0 2.68 0 1.36 0 0 Z M-126.45214844 244.24072266 C-162.69804319 285.43755508 -175.61495072 343.35705661 -181.3125 396.4375 C-181.39390228 397.1955191 -181.47530457 397.95353821 -181.55917358 398.73452759 C-183.66670949 418.70920299 -184.24044444 438.54617837 -184.25 458.625 C-184.25067474 459.90390106 -184.25134949 461.18280212 -184.25204468 462.50045776 C-184.19072919 536.02002403 -175.72955085 620.33304652 -122.8359375 676.2578125 C-100.7947683 697.57034801 -71.68656763 708.1520773 -41.19140625 708.0390625 C-11.8648505 707.31160564 14.69571942 697.4418745 36.1875 677.25 C59.02200256 653.21368152 68.16640505 619.56660551 68.14044189 587.08746338 C68.14341302 585.91444381 68.14638414 584.74142423 68.1494453 583.53285861 C68.15658525 580.29867224 68.15930146 577.06451839 68.16004276 573.83032537 C68.16190407 570.33311074 68.16945692 566.83590738 68.17617798 563.33869934 C68.18972059 555.69963772 68.1957802 548.06058137 68.20018864 540.42150974 C68.20295905 535.64207665 68.20719793 530.86264555 68.21169281 526.08321381 C68.22388221 512.82418063 68.23418084 499.56514904 68.2375679 486.30611038 C68.23778747 485.45856962 68.23800703 484.61102887 68.23823325 483.73780505 C68.23845153 482.88834263 68.23866981 482.03888021 68.2388947 481.1636765 C68.23933815 479.44261376 68.23978471 477.72155102 68.24023438 476.00048828 C68.2404558 475.14679864 68.24067723 474.29310901 68.24090537 473.41354999 C68.24484648 459.60608426 68.26228095 445.79867152 68.2855939 431.99122623 C68.3093912 417.78093187 68.32177362 403.570664 68.32293582 389.36034942 C68.32384811 381.3958254 68.32948657 373.43137039 68.34775543 365.46686554 C68.36327028 358.67949855 68.36821077 351.89222187 68.36001733 345.10484049 C68.35615006 341.65105381 68.35684403 338.19744833 68.37107468 334.74368477 C68.43546107 315.90116875 68.14239583 296.80568167 62.3125 278.6875 C62.05976318 277.87611572 61.80702637 277.06473145 61.54663086 276.22875977 C58.88136604 268.04390536 55.24007945 260.47475736 51 253 C50.43410156 251.99453125 49.86820313 250.9890625 49.28515625 249.953125 C35.517865 227.01843746 13.50750877 214.0465183 -11.76855469 207.5546875 C-54.4107353 196.95479315 -97.27158533 212.55203351 -126.45214844 244.24072266 Z " fill="#0B0C14" transform="translate(1654,230)"/>
<path d="M0 0 C6.12075502 6.12075502 11.33189115 12.72008912 16 20 C16.37237793 20.57540527 16.74475586 21.15081055 17.12841797 21.74365234 C31.82750513 44.71356808 39.73112449 70.50288425 44.3125 97.25 C44.45985596 98.10964355 44.60721191 98.96928711 44.7590332 99.85498047 C47.87287994 119.73471201 48.292235 139.60001978 48.27124023 159.68115234 C48.27452353 162.4958441 48.28083509 165.31052708 48.28707886 168.12521362 C48.29901452 174.14129501 48.30422592 180.15735015 48.30496025 186.17344284 C48.30629792 194.88868186 48.32151228 203.6038581 48.34045542 212.31907471 C48.37116139 226.48858758 48.39539135 240.65810205 48.41333008 254.82763672 C48.41440276 255.67229577 48.41547544 256.51695483 48.41658062 257.38720961 C48.4284091 266.81742379 48.43861765 276.2476386 48.44702148 285.67785645 C48.45009613 289.10343426 48.45318481 292.52901206 48.45629883 295.95458984 C48.45744684 297.22273238 48.45744684 297.22273238 48.45861804 298.51649396 C48.47172944 312.64696951 48.49640183 326.77739898 48.53004223 340.90784037 C48.55023521 349.59545206 48.56063513 358.28296499 48.55805302 366.97060032 C48.55701273 372.92382468 48.56673809 378.87697106 48.58469205 384.83016817 C48.59466508 388.2550584 48.59994336 391.67977597 48.59192467 395.10467529 C48.08055263 425.029412 48.08055263 425.029412 60.953125 451.28515625 C70.26460525 459.91843813 81.20466396 462.55566886 93.66015625 462.30859375 C105.4756225 461.21687231 114.26796602 455.74453117 121.75 446.75 C129.1126044 436.62217782 131.91473331 424.93407413 135 413 C136.32 413 137.64 413 139 413 C137.33297834 437.05274107 128.21581391 459.12334854 112 477 C111.46246094 477.61875 110.92492188 478.2375 110.37109375 478.875 C95.045203 495.46844563 71.44567069 505.04852987 49.12597656 506.140625 C29.88879469 506.73126614 12.48884736 505.73215941 -5 497 C-5.97066406 496.52046875 -6.94132812 496.0409375 -7.94140625 495.546875 C-30.76180229 483.28872224 -45.38089006 460.13055337 -52.71875 435.82421875 C-57.51701072 418.59573322 -59.1535831 401.09635016 -59.13803101 383.27061462 C-59.1404554 381.92498857 -59.14331961 380.57936325 -59.14658034 379.23373896 C-59.15426107 375.56921432 -59.15594883 371.90470849 -59.15663147 368.2401768 C-59.15848437 364.27474638 -59.16609865 360.30932664 -59.17311096 356.34390259 C-59.18459798 349.48024061 -59.19286253 342.61658104 -59.19923019 335.75291252 C-59.20960013 324.88812031 -59.23017512 314.02335821 -59.25234985 303.15858459 C-59.25982832 299.43377218 -59.26724226 295.70895965 -59.27463722 291.98414707 C-59.27648779 291.05341929 -59.27833835 290.12269152 -59.280245 289.16375987 C-59.30114283 278.58549453 -59.31998462 268.00722588 -59.33789062 257.42895508 C-59.33952881 256.46279396 -59.34116699 255.49663285 -59.34285481 254.50119413 C-59.36912131 238.85610397 -59.38777784 223.21101146 -59.40448253 207.5659086 C-59.42194661 191.4683828 -59.45083612 175.37090285 -59.4893719 159.27341372 C-59.51267323 149.36424735 -59.52675753 139.45515578 -59.52869953 129.5459618 C-59.53082046 122.74555403 -59.54384546 115.94522046 -59.56517886 109.14484607 C-59.57711884 105.2315756 -59.58441942 101.31845233 -59.57846642 97.40516472 C-59.41846603 69.12523054 -59.41846603 69.12523054 -65.6875 41.6875 C-65.9438623 40.95442627 -66.20022461 40.22135254 -66.46435547 39.46606445 C-73.52818694 20.12562165 -86.31688008 5.17266695 -104.85693359 -3.90966797 C-113.57124239 -7.9454581 -122.52752784 -10.41137513 -132 -12 C-132.75152344 -12.13148438 -133.50304688 -12.26296875 -134.27734375 -12.3984375 C-161.31642518 -16.23892123 -188.66083051 -9.09200204 -210.70996094 6.84350586 C-222.20903892 15.4963559 -231.19398085 25.98058569 -239 38 C-239.93585938 39.40958984 -239.93585938 39.40958984 -240.890625 40.84765625 C-257.07284693 66.7610792 -262.13965837 97.73144742 -262.15821838 127.74906921 C-262.16279228 129.32598822 -262.16779349 130.90290603 -262.17318195 132.47982246 C-262.18667831 136.78756505 -262.19415657 141.09529981 -262.20060861 145.40305793 C-262.20865021 150.05799574 -262.22233491 154.71291746 -262.23532104 159.36784363 C-262.2570307 167.42438436 -262.27519521 175.48092677 -262.29092598 183.53748131 C-262.31367497 195.18579051 -262.34181072 206.83408184 -262.37124526 218.48237584 C-262.41885965 237.38269252 -262.46214043 256.28301653 -262.50268555 275.18334961 C-262.54207183 293.53914967 -262.58350553 311.89494324 -262.62768555 330.25073242 C-262.63177196 331.94898496 -262.63177196 331.94898496 -262.63594092 333.68154564 C-262.64962091 339.36151582 -262.66334108 345.0414859 -262.67708123 350.72145593 C-262.79094931 397.81429053 -262.897512 444.90713937 -263 492 C-243.2 492 -223.4 492 -203 492 C-203 493.32 -203 494.64 -203 496 C-278.9 496 -354.8 496 -433 496 C-433 494.68 -433 493.36 -433 492 C-412.21 492 -391.42 492 -370 492 C-370 322.05 -370 152.1 -370 -23 C-390.79 -23 -411.58 -23 -433 -23 C-433 -24.32 -433 -25.64 -433 -27 C-376.9 -27 -320.8 -27 -263 -27 C-262.67 3.36 -262.34 33.72 -262 65 C-259.36 59.72 -256.72 54.44 -254 49 C-230.71205977 8.80952251 -193.67902637 -20.29684332 -148.71923828 -32.41015625 C-96.81798273 -45.54221124 -39.80017514 -37.33424111 0 0 Z " fill="#0B0C15" transform="translate(1191,456)"/>
<path d="M0 0 C56.1 0 112.2 0 170 0 C170 171.27 170 342.54 170 519 C190.13 519 210.26 519 231 519 C231 520.32 231 521.64 231 523 C154.77 523 78.54 523 0 523 C0 521.68 0 520.36 0 519 C21.12 519 42.24 519 64 519 C64 349.05 64 179.1 64 4 C42.88 4 21.76 4 0 4 C0 2.68 0 1.36 0 0 Z " fill="#0B0C14" transform="translate(498,429)"/>
<path d="M0 0 C0.68384766 0.00338379 1.36769531 0.00676758 2.07226562 0.01025391 C3.735699 0.01897821 5.39910652 0.03242467 7.0625 0.046875 C7.06488835 1.24287638 7.06727671 2.43887775 7.06973743 3.6711216 C7.12727562 32.15361718 7.20013128 60.63604691 7.29148628 89.11845354 C7.30275251 92.63512102 7.31389128 96.1517889 7.32495117 99.66845703 C7.32715486 100.36847129 7.32935854 101.06848554 7.331629 101.78971235 C7.36686323 113.07832672 7.39180529 124.36694104 7.41284702 135.65558977 C7.4347203 147.26548785 7.46809535 158.87531196 7.51120156 170.48515069 C7.53501606 176.99497073 7.55382166 183.50471345 7.56011391 190.01457596 C7.56621843 196.15906279 7.58640901 202.30335207 7.61677551 208.44776535 C7.62547058 210.68641531 7.62929636 212.92509119 7.62750816 215.16375732 C7.61062949 246.08266542 11.4660163 276.01949512 31.0625 301.046875 C31.56910156 301.72878906 32.07570313 302.41070313 32.59765625 303.11328125 C45.49869141 319.31089542 67.23279928 326.56316823 86.99609375 329.6640625 C115.73581001 332.79652446 143.61124068 326.23813225 166.578125 308.375 C175.82997748 300.8988227 183.57251833 292.52188177 190.25 282.671875 C190.6421167 282.09598633 191.0342334 281.52009766 191.43823242 280.92675781 C192.22397252 279.7296587 192.98192212 278.51390441 193.71254826 277.28239346 C194.61918217 275.7810088 195.58053237 274.31145803 196.59055996 272.87758732 C203.10731027 262.31329318 201.86345232 250.68878356 201.75610352 238.69116211 C201.75608804 236.22138329 201.75878455 233.7516032 201.76397705 231.28182983 C201.7695916 225.98289408 201.75737061 220.6844635 201.72924995 215.38563347 C201.68904653 207.72140391 201.68698201 200.05751483 201.69490241 192.39320082 C201.70720051 179.95128537 201.69654323 167.50951202 201.66772461 155.06762695 C201.66601066 154.32455559 201.66429672 153.58148424 201.66253083 152.81589556 C201.65552754 149.80442671 201.64841002 146.79295815 201.64116097 143.78148988 C201.62116164 135.47192516 201.60336487 127.16235712 201.58764648 118.8527832 C201.58623012 118.1078962 201.58481376 117.36300921 201.58335448 116.59554987 C201.56040957 104.18647363 201.55709366 91.7774603 201.56704658 79.36836821 C201.57215952 71.71921351 201.55893557 64.07049699 201.52213406 56.42142684 C201.49516032 50.5720636 201.49311034 44.72286681 201.50032043 38.87343979 C201.49897894 36.4703457 201.48897254 34.06723916 201.46984673 31.66422081 C201.44494865 28.39428636 201.4504108 25.12578856 201.46363831 21.8558197 C201.44887233 20.89611564 201.43410635 19.93641158 201.41889292 18.94762558 C201.44572889 16.54218494 201.50376465 14.38633495 202.0625 12.046875 C204.42463589 10.01389408 204.42463589 10.01389408 207.0625 9.046875 C207.98804688 8.6240625 208.91359375 8.20125 209.8671875 7.765625 C218.19263515 4.46086715 226.23467889 2.51646571 235.0625 1.046875 C235.78824219 0.91410156 236.51398438 0.78132813 237.26171875 0.64453125 C244.15926743 -0.44770531 251.06694466 0.046875 258.0625 0.046875 C258.0625 116.866875 258.0625 233.686875 258.0625 354.046875 C251.18477738 357.48573631 246.16455454 359.88425701 238.9375 361.296875 C238.19113281 361.45671875 237.44476562 361.6165625 236.67578125 361.78125 C226.02479204 364.00406514 216.11117655 364.046875 205.0625 364.046875 C204.7325 343.916875 204.4025 323.786875 204.0625 303.046875 C201.4225 306.676875 198.7825 310.306875 196.0625 314.046875 C192.54114618 318.18825214 188.81282477 322.1140123 185.0625 326.046875 C184.39476562 326.76746094 183.72703125 327.48804688 183.0390625 328.23046875 C159.06637613 353.36638673 121.2893957 369.858133 86.74682617 371.1730957 C71.0463138 371.50151468 55.41993977 371.74633245 40.0625 368.046875 C39.25312988 367.85351562 38.44375977 367.66015625 37.60986328 367.4609375 C8.64686527 360.25493915 -14.37488873 343.68023849 -30.06005859 318.22509766 C-42.12389973 297.88890831 -48.13009734 274.17385975 -48.05775452 250.59387207 C-48.05860894 249.56614858 -48.05946337 248.53842509 -48.06034368 247.47955847 C-48.06198559 244.0495054 -48.05649825 240.61950166 -48.05102539 237.18945312 C-48.05074321 234.72525026 -48.05090185 232.2610473 -48.0514679 229.79684448 C-48.05169532 224.49857453 -48.04886617 219.20031981 -48.04323006 213.90205383 C-48.03508661 206.24174865 -48.03249692 198.58144941 -48.03124207 190.92114037 C-48.02905601 178.49136884 -48.02240804 166.0616039 -48.01293945 153.63183594 C-48.00375378 141.56087273 -47.9966786 129.48991131 -47.99243164 117.41894531 C-47.99216892 116.67429821 -47.99190619 115.9296511 -47.99163551 115.16243893 C-47.99033043 111.4265862 -47.98906673 107.69073346 -47.98782361 103.95488071 C-47.9774649 72.98554069 -47.95978416 42.01620885 -47.9375 11.046875 C-46.18576181 10.23806983 -44.4326456 9.4322488 -42.67895508 8.62768555 C-41.70283768 8.1786235 -40.72672028 7.72956146 -39.72102356 7.26689148 C-27.39130337 1.86278352 -13.36382345 -0.08869794 0 0 Z " fill="#020210" transform="translate(906.9375,1043.953125)"/>
<path d="M0 0 C28.41963343 24.88890076 39.42119727 61.98120771 41.98828125 98.55078125 C42.6912744 112.97390088 42.6912744 112.97390088 38.5 117.9375 C37.22314943 119.02257065 35.91133818 120.0683364 34.5625 121.0625 C34.08039063 121.56007813 33.59828125 122.05765625 33.1015625 122.5703125 C23.66435059 132.10738909 8.89036782 136.78424023 -4.09069824 138.17617798 C-4.93703559 138.27180853 -5.78337295 138.36743909 -6.65535688 138.46596754 C-9.47731189 138.78333711 -12.30013923 139.09210681 -15.12304688 139.40087891 C-17.15216132 139.62726506 -19.18121778 139.85417147 -21.21022034 140.08155823 C-26.71155897 140.69648773 -32.21370843 141.30385536 -37.71605873 141.909657 C-43.47743685 142.54505729 -49.23811963 143.18670368 -54.99890137 143.82748413 C-64.67247341 144.90251564 -74.34656584 145.97276004 -84.02099609 147.04003906 C-95.20234305 148.27360754 -106.38290059 149.51413636 -117.56304693 150.75853598 C-128.32304716 151.95605834 -139.08352683 153.14921541 -149.84425354 154.34019089 C-154.42158067 154.84684355 -158.99874641 155.35492035 -163.57579041 155.8641243 C-168.9663716 156.46359441 -174.35736563 157.05920656 -179.7487011 157.65185356 C-181.72613436 157.86983138 -183.70342505 158.08910724 -185.68055916 158.30978203 C-188.38142853 158.61100953 -191.0827783 158.90749396 -193.78430176 159.20278931 C-194.56456333 159.29091688 -195.3448249 159.37904445 -196.14873075 159.46984255 C-200.60852659 159.95132289 -204.95153075 160.14395504 -209.4375 160.0625 C-205.03970426 198.43464955 -196.72514111 234.7001282 -171.4375 265.0625 C-170.84453125 265.80757812 -170.2515625 266.55265625 -169.640625 267.3203125 C-164.92376918 273.04792314 -159.30236773 277.55357662 -153.4375 282.0625 C-152.65632813 282.6709375 -151.87515625 283.279375 -151.0703125 283.90625 C-119.97235248 306.94177594 -80.04802487 310.16755242 -42.8984375 304.68798828 C-17.22267991 300.431055 6.99511045 289.62988955 25.5625 271.0625 C29.79071999 271.22512385 32.00087086 271.60298525 35.3125 274.3125 C40.6311941 280.81312612 40.6311941 280.81312612 40.4375 284.3359375 C39.27753957 287.95045707 37.1605647 290.39469316 34.6875 293.1875 C34.19137207 293.755896 33.69524414 294.32429199 33.18408203 294.90991211 C31.65773365 296.64075545 30.11337551 298.3536278 28.5625 300.0625 C27.28632812 301.48369141 27.28632812 301.48369141 25.984375 302.93359375 C4.12397425 326.03453872 -28.53969456 340.32577391 -59.4375 346.0625 C-60.20481445 346.20913086 -60.97212891 346.35576172 -61.76269531 346.50683594 C-86.25283219 350.963945 -114.07150824 351.57322515 -138.4375 346.0625 C-139.09862793 345.91796387 -139.75975586 345.77342773 -140.44091797 345.62451172 C-168.26335656 339.37017713 -193.08596753 325.9481891 -213.4375 306.0625 C-214.28699219 305.27488281 -215.13648438 304.48726562 -216.01171875 303.67578125 C-248.85378588 272.48355109 -264.10466578 223.52465007 -265.56298828 179.25292969 C-267.07072446 120.34076819 -250.46367643 66.10998289 -209.70581055 22.47167969 C-205.81803744 18.38114864 -201.84103067 14.58692291 -197.4375 11.0625 C-196.53128906 10.31871094 -195.62507813 9.57492187 -194.69140625 8.80859375 C-140.98194439 -34.46524786 -55.56409655 -46.97967074 0 0 Z M-179.0625 32.75 C-202.79987303 60.21753164 -211.04761511 97.60185644 -210.4375 133.0625 C-199.49867199 132.41321925 -188.61753023 131.44502916 -177.71777344 130.32836914 C-175.99633265 130.15392964 -174.27487104 129.97969559 -172.5533905 129.8056488 C-167.92791626 129.33719567 -163.30280109 128.865291 -158.67779446 128.39224553 C-155.78501182 128.09644318 -152.89216793 127.80124685 -149.99930573 127.50622368 C-140.93660055 126.5817907 -131.87411971 125.65520158 -122.81195521 124.725483 C-112.36755537 123.653979 -101.92244587 122.5897654 -91.4766748 121.5317145 C-83.3806693 120.71123123 -75.28533206 119.88436192 -67.19047761 119.05259985 C-62.36255063 118.55666436 -57.5343813 118.06346248 -52.70549774 117.57692146 C-48.17711688 117.12048213 -43.64961544 116.6561517 -39.12267494 116.18564796 C-37.46006315 116.01423405 -35.79715198 115.84569657 -34.13393974 115.68021011 C-31.86875325 115.45438791 -29.60486241 115.21834096 -27.34100342 114.97962952 C-26.0727409 114.85003373 -24.80447838 114.72043795 -23.49778366 114.58691502 C-20.27577902 114.2480512 -20.27577902 114.2480512 -17.4375 112.0625 C-16.97204966 109.9749008 -16.97204966 109.9749008 -17.0390625 107.5390625 C-17.03277832 106.61053467 -17.02649414 105.68200684 -17.02001953 104.7253418 C-17.03403809 103.722854 -17.04805664 102.72036621 -17.0625 101.6875 C-17.07265137 100.65471924 -17.08280273 99.62193848 -17.09326172 98.55786133 C-17.65101852 70.33925845 -25.06046124 45.19874658 -45.4375 25.0625 C-46.09363281 24.39605469 -46.74976563 23.72960938 -47.42578125 23.04296875 C-57.5438718 13.44486572 -70.15412539 8.45546125 -83.4375 5.0625 C-84.85869141 4.69318359 -84.85869141 4.69318359 -86.30859375 4.31640625 C-119.92882611 -2.75896921 -155.53432869 7.87619671 -179.0625 32.75 Z " fill="#020210" transform="translate(1883.4375,1065.9375)"/>
<path d="M0 0 C11.69127824 10.47937744 19.33705814 23.93330911 22.125 39.421875 C20.65782784 46.92075494 13.57301591 53.04342684 7.5625 57.296875 C-1.52800617 62.77158133 -9.95037693 65.62339791 -20.4375 67.296875 C-22.48699654 64.2226302 -23.1688124 61.96106711 -24.125 58.421875 C-29.78519694 39.69328219 -42.48836926 23.3484704 -59.75 13.984375 C-85.70895743 0.59351775 -118.90334152 -0.53894198 -146.55371094 7.94628906 C-161.98184303 13.03957438 -176.58688291 22.43890032 -184.875 36.734375 C-191.20641407 49.54069128 -192.35801742 62.76009196 -188.40625 76.5546875 C-183.29889827 91.01178795 -172.82460411 99.6564065 -159.39501953 106.30859375 C-150.22551417 110.67482572 -140.8231759 113.92670159 -131.0390625 116.61328125 C-129.96252411 116.91174957 -128.88598572 117.2102179 -127.77682495 117.51773071 C-113.93605058 121.31354294 -99.98080258 124.66981338 -86.02685547 128.02099609 C-53.43535669 135.86801578 -16.00943211 145.09193165 9.5625 168.296875 C10.47644531 169.11800781 11.39039063 169.93914062 12.33203125 170.78515625 C26.5767367 184.25039766 35.19908525 201.91237714 35.8984375 221.58203125 C36.07265512 234.71669242 35.66584473 246.77228684 31.5625 259.296875 C31.18867187 260.43898438 30.81484375 261.58109375 30.4296875 262.7578125 C19.01922304 294.5710942 -6.03668077 317.94871088 -36.0859375 332.23388672 C-62.41678703 344.13634922 -90.40450117 348.74150066 -119.125 348.609375 C-120.36716782 348.60664078 -120.36716782 348.60664078 -121.63442993 348.60385132 C-134.75541787 348.55539129 -147.55496121 347.98719366 -160.4375 345.296875 C-161.22995117 345.13590332 -162.02240234 344.97493164 -162.83886719 344.80908203 C-185.82869959 339.94674649 -207.6879955 329.68575516 -225.4375 314.296875 C-226.46875 313.513125 -227.5 312.729375 -228.5625 311.921875 C-241.2466732 300.34067338 -252.70056426 282.38841959 -253.72265625 264.86328125 C-253.20347586 260.19065771 -250.68690373 257.51192985 -247.4375 254.296875 C-246.60025391 253.42289063 -246.60025391 253.42289063 -245.74609375 252.53125 C-236.73871007 243.89349977 -224.15761086 237.00741169 -211.67578125 235.73046875 C-210.87825439 235.64724365 -210.08072754 235.56401855 -209.2590332 235.47827148 C-208.35737427 235.38848022 -208.35737427 235.38848022 -207.4375 235.296875 C-207.2355603 236.1175647 -207.2355603 236.1175647 -207.02954102 236.95483398 C-199.76314613 265.84244871 -186.26300227 286.03770314 -160.6875 301.546875 C-141.9375706 312.14935685 -120.83452155 315.52534109 -99.5625 315.546875 C-98.52903946 315.54838562 -98.52903946 315.54838562 -97.47470093 315.54992676 C-73.55488794 315.52629985 -49.92902141 311.41963651 -32.01171875 294.15625 C-19.58121275 280.34876837 -14.37532393 263.94634652 -15.26269531 245.37744141 C-16.37541026 232.13364707 -21.50741922 218.96021041 -31.45703125 209.8671875 C-35.56390508 206.61084967 -39.89367903 203.90139769 -44.4375 201.296875 C-45.49710938 200.68070313 -46.55671875 200.06453125 -47.6484375 199.4296875 C-56.06234089 194.77747476 -64.9277336 191.57386576 -74.03125 188.5390625 C-74.67794458 188.32310991 -75.32463917 188.10715733 -75.99093056 187.88466072 C-91.16633724 182.84523852 -106.59327798 178.9945917 -122.125 175.234375 C-190.47158719 158.66948173 -190.47158719 158.66948173 -213.4375 139.296875 C-214.489375 138.53375 -215.54125 137.770625 -216.625 136.984375 C-230.8995974 123.34420416 -237.34739156 106.25774342 -237.96411133 86.85766602 C-238.27988724 57.17687877 -226.44913785 33.89911268 -206.25 12.671875 C-154.05071764 -37.74788637 -56.90571486 -48.17586088 0 0 Z " fill="#010110" transform="translate(709.4375,1066.703125)"/>
<path d="M0 0 C1.55778701 1.48325175 3.10129088 2.981762 4.625 4.5 C5.18832031 5.04011719 5.75164062 5.58023437 6.33203125 6.13671875 C14.2252348 14.4047974 18.7678068 26.42143885 20.625 37.5 C20.76292969 38.23992187 20.90085937 38.97984375 21.04296875 39.7421875 C21.47602471 43.94201318 20.34045607 46.39194599 17.8125 49.5625 C7.71396681 59.92517993 -8.52019026 67.94806052 -23.0625 68.6875 C-24.2071875 68.5946875 -24.2071875 68.5946875 -25.375 68.5 C-25.931875 66.705625 -25.931875 66.705625 -26.5 64.875 C-31.28264351 50.72727314 -37.57292697 34.51086968 -51.68359375 27.32421875 C-66.4187541 21.00258209 -85.25669762 19.74647602 -100.375 25.5 C-109.34338558 29.29624832 -117.12872986 33.91357234 -124.375 40.5 C-125.19484375 41.23863281 -126.0146875 41.97726562 -126.859375 42.73828125 C-153.51089668 68.02411937 -165.37574399 106.04376576 -171.625 141.25 C-171.77606201 142.09852539 -171.92712402 142.94705078 -172.08276367 143.82128906 C-174.59508954 158.91508218 -175.67388416 173.97840113 -175.69384766 189.26245117 C-175.70318159 190.94011397 -175.71335517 192.61777228 -175.72428894 194.29542542 C-175.75121338 198.78175108 -175.7666246 203.26804606 -175.77971697 207.75443053 C-175.79551495 212.46826495 -175.82225048 217.18203812 -175.8477478 221.89582825 C-175.89424421 230.79166312 -175.9311278 239.68750991 -175.96442068 248.58340293 C-176.00285 258.72395484 -176.05220448 268.8644448 -176.10240483 279.00494421 C-176.20529044 299.83658353 -176.29468966 320.6682622 -176.375 341.5 C-177.93848593 342.31115962 -179.50551852 343.11548505 -181.07397461 343.91699219 C-181.94622177 344.36564636 -182.81846893 344.81430054 -183.71714783 345.27655029 C-187.68057794 347.10097735 -191.66661457 347.96131217 -195.9375 348.75 C-197.11602539 348.98976563 -197.11602539 348.98976563 -198.31835938 349.234375 C-200.66539505 349.69798699 -203.01427196 350.11248521 -205.375 350.5 C-206.0335498 350.60892578 -206.69209961 350.71785156 -207.37060547 350.83007812 C-215.42158112 351.93682123 -223.10716568 351.5 -231.375 351.5 C-231.375 235.01 -231.375 118.52 -231.375 -1.5 C-215.24041459 -8.41482232 -215.24041459 -8.41482232 -208.4375 -9.8125 C-207.74849609 -9.96783203 -207.05949219 -10.12316406 -206.34960938 -10.28320312 C-196.94643799 -12.35599303 -189.34092533 -12.5 -179.375 -12.5 C-179.045 17.86 -178.715 48.22 -178.375 79.5 C-173.92 69.6 -173.92 69.6 -169.375 59.5 C-161.3896989 44.5434043 -152.11130892 31.67034402 -140.375 19.5 C-139.64796875 18.70980469 -138.9209375 17.91960937 -138.171875 17.10546875 C-104.72603048 -18.26041499 -39.34876552 -34.48148155 0 0 Z " fill="#020210" transform="translate(1541.375,1056.5)"/>
<path d="M0 0 C423.72 0 847.44 0 1284 0 C1284 4.62 1284 9.24 1284 14 C860.28 14 436.56 14 0 14 C0 9.38 0 4.76 0 0 Z " fill="#0B0B14" transform="translate(398,356)"/>
<path d="M0 0 C11.57980668 9.70740466 18.45430001 23.37872234 19.875 38.375 C20.98371998 56.27290822 17.48660402 72.96084745 5.5 86.8125 C-1.81251305 94.34735298 -9.26422885 99.67212445 -19.125 103.375 C-19.96933594 103.69597656 -20.81367187 104.01695312 -21.68359375 104.34765625 C-38.69690197 109.65659858 -59.14651819 107.57200969 -74.9375 99.6875 C-88.34053416 91.74127321 -97.32005705 80.12767641 -102.125 65.375 C-106.35435868 48.41350945 -104.51568735 31.09789476 -96.19921875 15.66796875 C-87.10647351 1.23259354 -73.06406667 -7.77717381 -56.625 -11.9375 C-36.6795125 -15.24037012 -16.40166497 -12.17699369 0 0 Z " fill="#0B0C14" transform="translate(654.125,193.625)"/>
<path d="M0 0 C61.71 0 123.42 0 187 0 C187 4.62 187 9.24 187 14 C125.29 14 63.58 14 0 14 C0 9.38 0 4.76 0 0 Z " fill="#0B0C14" transform="translate(1860,361)"/>
</svg>
